<?xml version="1.0" encoding="utf-8"?>
<!-- Generator: Adobe Illustrator 16.0.3, SVG Export Plug-In . SVG Version: 6.00 Build 0)  -->
<svg version="1.2" baseProfile="tiny" xmlns="http://www.w3.org/2000/svg" xmlns:xlink="http://www.w3.org/1999/xlink" x="0px"
	 y="0px" width="50px" height="50px" viewBox="0 0 50 50" xml:space="preserve">
<g id="Ebene_1" display="none">
	<path display="inline" fill="#3C3C3C" d="M0.706,24.02L19.338,4.854c0,0,2.218-2.341,2.218,0.198c0,2.54,0,8.691,0,8.691
		s1.492,0,3.786,0c6.564,0,18.483,0,23.34,0c0,0,1.318-0.345,1.318,1.658c0,2.002,0,18.267,0,19.703c0,1.438-1.1,1.395-1.1,1.395
		c-4.731,0-17.063,0-23.39,0c-2.069,0-3.412,0-3.412,0s0,4.931,0,8.029c0,3.087-2.301,0.758-2.301,0.758S2.375,28.42,0.559,26.608
		C-0.779,25.27,0.706,24.02,0.706,24.02z"/>
</g>
<g id="Ebene_2">
	<path fill="#3C3C3C" d="M49,13.5H21.507V4.493c-0.39-0.39-1.025-0.39-1.414,0L0.293,24.292c-0.391,0.391-0.391,1.024,0,1.414
		l19.799,19.799c0.391,0.391,1.023,0.391,1.414,0V36.5H49c0.553,0,1-0.447,1-1v-21C50,13.948,49.553,13.5,49,13.5z"/>
</g>
</svg>
