<?xml version="1.0" encoding="utf-8"?>
<!-- Generator: Adobe Illustrator 16.0.3, SVG Export Plug-In . SVG Version: 6.00 Build 0)  -->
<!DOCTYPE svg PUBLIC "-//W3C//DTD SVG 1.1//EN" "http://www.w3.org/Graphics/SVG/1.1/DTD/svg11.dtd" [
	<!ENTITY ns_extend "http://ns.adobe.com/Extensibility/1.0/">
	<!ENTITY ns_ai "http://ns.adobe.com/AdobeIllustrator/10.0/">
	<!ENTITY ns_graphs "http://ns.adobe.com/Graphs/1.0/">
	<!ENTITY ns_vars "http://ns.adobe.com/Variables/1.0/">
	<!ENTITY ns_imrep "http://ns.adobe.com/ImageReplacement/1.0/">
	<!ENTITY ns_sfw "http://ns.adobe.com/SaveForWeb/1.0/">
	<!ENTITY ns_custom "http://ns.adobe.com/GenericCustomNamespace/1.0/">
	<!ENTITY ns_adobe_xpath "http://ns.adobe.com/XPath/1.0/">
]>
<svg version="1.1" id="Ebene_1" xmlns:x="&ns_extend;" xmlns:i="&ns_ai;" xmlns:graph="&ns_graphs;"
	 xmlns="http://www.w3.org/2000/svg" xmlns:xlink="http://www.w3.org/1999/xlink" x="0px" y="0px" width="104px" height="104px"
	 viewBox="0 0 104 104" enable-background="new 0 0 104 104" xml:space="preserve">
<metadata>
	<sfw  xmlns="&ns_sfw;">
		<slices></slices>
		<sliceSourceBounds  width="104" height="103.824" x="47.5" y="48.588" bottomLeftOrigin="true"></sliceSourceBounds>
	</sfw>
</metadata>
<g>
	<linearGradient id="SVGID_1_" gradientUnits="userSpaceOnUse" x1="51.9995" y1="0.5879" x2="51.9995" y2="103.4126">
		<stop  offset="0" style="stop-color:#FFFFFF"/>
		<stop  offset="1" style="stop-color:#999999"/>
	</linearGradient>
	<path fill="url(#SVGID_1_)" stroke="#B3B3B3" stroke-miterlimit="10" d="M52,0.588c28.466,0,51.5,22.994,51.5,51.411
		c0,28.419-23.034,51.413-51.5,51.413S0.5,80.418,0.5,51.999C0.5,23.582,23.534,0.588,52,0.588L52,0.588z"/>
	<linearGradient id="SVGID_2_" gradientUnits="userSpaceOnUse" x1="51.9653" y1="102.4912" x2="51.9653" y2="1.5112">
		<stop  offset="0" style="stop-color:#808080"/>
		<stop  offset="0.1804" style="stop-color:#CCCCCC"/>
		<stop  offset="0.3608" style="stop-color:#848686"/>
		<stop  offset="0.549" style="stop-color:#FFFFFF"/>
		<stop  offset="0.7216" style="stop-color:#CCF5F5"/>
		<stop  offset="0.9216" style="stop-color:#999999"/>
		<stop  offset="1" style="stop-color:#808080"/>
	</linearGradient>
	<path fill="url(#SVGID_2_)" stroke="#B3B3B3" stroke-width="0.2283" stroke-miterlimit="10" d="M52,1.511
		c27.915,0,50.506,22.622,50.506,50.488c0,27.869-22.591,50.492-50.506,50.492c-27.982,0-50.576-22.623-50.576-50.492
		C1.424,24.133,24.018,1.511,52,1.511L52,1.511z"/>
	
		<linearGradient id="SVGID_3_" gradientUnits="userSpaceOnUse" x1="9516.5586" y1="-13697.4971" x2="11349.0654" y2="-15708.7646" gradientTransform="matrix(0.0284 0 0 -0.0284 -244.2327 -365.5812)">
		<stop  offset="0" style="stop-color:#7F7F81"/>
		<stop  offset="1" style="stop-color:#F9F9FB"/>
	</linearGradient>
	<path fill="url(#SVGID_3_)" d="M52.07,9.237c23.625,0,42.764,19.139,42.764,42.762c0,23.625-19.139,42.764-42.764,42.764
		S9.307,75.624,9.307,51.999C9.307,28.376,28.445,9.237,52.07,9.237z"/>
	<radialGradient id="SVGID_4_" cx="52.1401" cy="52.21" r="41.9915" gradientUnits="userSpaceOnUse">
		<stop  offset="0.9458" style="stop-color:#FFFFFF"/>
		<stop  offset="0.9669" style="stop-color:#FDFDFD"/>
		<stop  offset="0.9769" style="stop-color:#F5F5F5"/>
		<stop  offset="0.9846" style="stop-color:#E8E8E8"/>
		<stop  offset="0.9911" style="stop-color:#D6D6D6"/>
		<stop  offset="0.9967" style="stop-color:#BEBEBE"/>
		<stop  offset="1" style="stop-color:#ADADAD"/>
	</radialGradient>
	<path fill="url(#SVGID_4_)" d="M52.141,10.218c23.204,0,41.99,18.789,41.99,41.991c0,23.205-18.786,41.993-41.99,41.993
		c-23.205,0-41.991-18.788-41.991-41.993C10.149,29.007,28.936,10.218,52.141,10.218z"/>
	
		<linearGradient id="SVGID_5_" gradientUnits="userSpaceOnUse" x1="9665.5234" y1="-13935.8535" x2="11200.1895" y2="-15470.5195" gradientTransform="matrix(0.0284 0 0 -0.0284 -244.2327 -365.5812)">
		<stop  offset="0" style="stop-color:#FFFFFF"/>
		<stop  offset="0.0453" style="stop-color:#FBFBFB"/>
		<stop  offset="0.0938" style="stop-color:#EEEEEE"/>
		<stop  offset="0.1281" style="stop-color:#E0E0E0"/>
		<stop  offset="0.7241" style="stop-color:#4D4D4D"/>
		<stop  offset="0.9754" style="stop-color:#4D4D4D"/>
	</linearGradient>
	<path fill="url(#SVGID_5_)" d="M52.07,15.707c20.088,0,36.292,16.274,36.292,36.292c0,20.088-16.272,36.294-36.292,36.294
		c-20.086,0-36.291-16.274-36.291-36.294C15.779,31.913,32.053,15.707,52.07,15.707z"/>
	
		<linearGradient id="SVGID_6_" gradientUnits="userSpaceOnUse" x1="10433.2188" y1="-15903.749" x2="10433.2188" y2="-13503.2803" gradientTransform="matrix(0.0284 0 0 -0.0284 -244.2327 -365.5812)">
		<stop  offset="0" style="stop-color:#808080"/>
		<stop  offset="0.1804" style="stop-color:#CCCCCC"/>
		<stop  offset="0.3686" style="stop-color:#848686"/>
		<stop  offset="0.5804" style="stop-color:#FFFFFF"/>
		<stop  offset="0.749" style="stop-color:#DAF5F5"/>
		<stop  offset="0.8902" style="stop-color:#999999"/>
		<stop  offset="1" style="stop-color:#808080"/>
	</linearGradient>
	<path fill="url(#SVGID_6_)" d="M52.07,17.912c18.78,0,34.087,15.23,34.087,34.087c0,18.78-15.228,34.087-34.087,34.087
		c-18.78,0-34.087-15.229-34.087-34.087C17.983,33.222,33.211,17.912,52.07,17.912z"/>
	<radialGradient id="SVGID_7_" cx="42.3389" cy="42.0957" r="25.0611" fx="46.149" fy="25.6811" gradientUnits="userSpaceOnUse">
		<stop  offset="0.0345" style="stop-color:#FFFFFF"/>
		<stop  offset="0.1588" style="stop-color:#F9F9F9"/>
		<stop  offset="0.3328" style="stop-color:#E6E6E6"/>
		<stop  offset="0.5352" style="stop-color:#C9C9C9"/>
		<stop  offset="0.6897" style="stop-color:#ADADAD"/>
		<stop  offset="0.7581" style="stop-color:#A4A4A4"/>
		<stop  offset="0.8721" style="stop-color:#8A8A8A"/>
		<stop  offset="1" style="stop-color:#666666"/>
	</radialGradient>
	<path fill-rule="evenodd" clip-rule="evenodd" fill="url(#SVGID_7_)" d="M45.806,51.01c-4.87,4.959-5.869,5.899-10.801,10.859
		c-2.872,2.511-4.245,2.952-5.807,3.076c-3.309,0.502-6.43-3.831-7.116-5.022c-1.936-3.327-4.434-15.945,6.742-27.182
		c11.55-11.613,25.659-7.909,31.527-5.085c1.186,0.565,3.185,2.01,3.185,3.578c0,1.758-2.56,4.144-3.81,5.839L45.806,51.01z"/>
	<radialGradient id="SVGID_8_" cx="59.416" cy="62.3184" r="25.948" fx="68.4158" fy="74.7388" gradientUnits="userSpaceOnUse">
		<stop  offset="0.0443" style="stop-color:#FFFFFF"/>
		<stop  offset="0.1667" style="stop-color:#F9F9F9"/>
		<stop  offset="0.3381" style="stop-color:#E6E6E6"/>
		<stop  offset="0.5375" style="stop-color:#C9C9C9"/>
		<stop  offset="0.6897" style="stop-color:#ADADAD"/>
		<stop  offset="0.7581" style="stop-color:#A4A4A4"/>
		<stop  offset="0.8721" style="stop-color:#8A8A8A"/>
		<stop  offset="1" style="stop-color:#666666"/>
	</radialGradient>
	<path fill-rule="evenodd" clip-rule="evenodd" fill="url(#SVGID_8_)" d="M53.328,58.429c-4.933,4.961-5.869,5.901-10.801,10.861
		c-2.498,2.887-2.935,4.33-3.06,5.838c-0.563,3.325,3.809,6.528,4.932,7.155c3.372,1.946,15.857,4.457,27.033-6.778
		c11.612-11.615,7.93-25.803,5.118-31.703c-0.561-1.192-1.996-3.139-3.558-3.139c-1.748-0.063-4.12,2.512-5.807,3.83L53.328,58.429z
		"/>
	<linearGradient id="SVGID_9_" gradientUnits="userSpaceOnUse" x1="49.0078" y1="24.5942" x2="29.5894" y2="64.2089">
		<stop  offset="0" style="stop-color:#FFFFFF;stop-opacity:0"/>
		<stop  offset="0.0481" style="stop-color:#FBFBFB;stop-opacity:0"/>
		<stop  offset="0.0999" style="stop-color:#EEEEEE;stop-opacity:0"/>
		<stop  offset="0.1533" style="stop-color:#D8D8D8;stop-opacity:0"/>
		<stop  offset="0.2076" style="stop-color:#BABABA;stop-opacity:0"/>
		<stop  offset="0.2562" style="stop-color:#999999;stop-opacity:0"/>
		<stop  offset="0.6502" style="stop-color:#4D4D4D;stop-opacity:0.5"/>
		<stop  offset="0.9754" style="stop-color:#292929;stop-opacity:0.8"/>
	</linearGradient>
	<path fill-rule="evenodd" clip-rule="evenodd" fill="url(#SVGID_9_)" d="M45.806,51.01c-4.87,4.959-5.869,5.899-10.801,10.859
		c-2.872,2.511-4.245,2.952-5.807,3.076c-3.309,0.502-6.43-3.831-7.116-5.022c-1.936-3.327-4.434-15.945,6.742-27.182
		c11.55-11.613,25.659-7.909,31.527-5.085c1.186,0.565,3.185,2.01,3.185,3.578c0,1.758-2.56,4.144-3.81,5.839L45.806,51.01z"/>
	<linearGradient id="SVGID_10_" gradientUnits="userSpaceOnUse" x1="72.1592" y1="73.2568" x2="50.1749" y2="53.597">
		<stop  offset="0" style="stop-color:#FFFFFF;stop-opacity:0"/>
		<stop  offset="0.0453" style="stop-color:#FBFBFB;stop-opacity:0"/>
		<stop  offset="0.0938" style="stop-color:#EEEEEE;stop-opacity:0"/>
		<stop  offset="0.1281" style="stop-color:#E0E0E0;stop-opacity:0"/>
		<stop  offset="0.7241" style="stop-color:#4D4D4D"/>
		<stop  offset="0.9754" style="stop-color:#292929"/>
	</linearGradient>
	<path fill-rule="evenodd" clip-rule="evenodd" fill="url(#SVGID_10_)" d="M53.328,58.429c-4.933,4.961-5.869,5.901-10.801,10.861
		c-2.498,2.887-2.935,4.33-3.06,5.838c-0.563,3.325,3.809,6.528,4.932,7.155c3.372,1.946,15.857,4.457,27.033-6.778
		c11.612-11.615,7.93-25.803,5.118-31.703c-0.561-1.192-1.996-3.139-3.558-3.139c-1.748-0.063-4.12,2.512-5.807,3.83L53.328,58.429z
		"/>
	<linearGradient id="SVGID_11_" gradientUnits="userSpaceOnUse" x1="41.9673" y1="24.022" x2="41.9673" y2="65.7358">
		<stop  offset="0" style="stop-color:#E6E6E6;stop-opacity:0.5"/>
		<stop  offset="1" style="stop-color:#4D4D4D"/>
	</linearGradient>
	
		<path fill-rule="evenodd" clip-rule="evenodd" fill="none" stroke="url(#SVGID_11_)" stroke-width="1.5" stroke-miterlimit="10" d="
		M45.806,51.01c-4.87,4.959-5.869,5.899-10.801,10.859c-2.872,2.511-4.245,2.952-5.807,3.076c-3.309,0.502-6.43-3.831-7.116-5.022
		c-1.936-3.327-4.434-15.945,6.742-27.182c11.55-11.613,25.659-7.909,31.527-5.085c1.186,0.565,3.185,2.01,3.185,3.578
		c0,1.758-2.56,4.144-3.81,5.839L45.806,51.01z"/>
	<linearGradient id="SVGID_12_" gradientUnits="userSpaceOnUse" x1="71.5225" y1="76.5889" x2="53.429" y2="55.0259">
		<stop  offset="0" style="stop-color:#FFFFFF;stop-opacity:0.5"/>
		<stop  offset="1" style="stop-color:#4D4D4D"/>
	</linearGradient>
	
		<path fill-rule="evenodd" clip-rule="evenodd" fill="none" stroke="url(#SVGID_12_)" stroke-width="1.5" stroke-miterlimit="10" d="
		M53.328,58.429c-4.933,4.961-5.869,5.901-10.801,10.861c-2.498,2.887-2.935,4.33-3.06,5.838c-0.563,3.325,3.809,6.528,4.932,7.155
		c3.372,1.946,15.857,4.457,27.033-6.778c11.612-11.615,7.93-25.803,5.118-31.703c-0.561-1.192-1.996-3.139-3.558-3.139
		c-1.748-0.063-4.12,2.512-5.807,3.83L53.328,58.429z"/>
	<linearGradient id="SVGID_13_" gradientUnits="userSpaceOnUse" x1="70.3018" y1="28.5586" x2="70.3018" y2="38.8389">
		<stop  offset="0.3251" style="stop-color:#FFFFFF"/>
		<stop  offset="1" style="stop-color:#999999"/>
	</linearGradient>
	<polygon fill-rule="evenodd" clip-rule="evenodd" fill="url(#SVGID_13_)" points="72.015,38.839 65.162,31.985 75.441,28.559 	"/>
	<radialGradient id="SVGID_14_" cx="72.0723" cy="39.1416" r="7.84" fx="72.1502" fy="39.3816" gradientUnits="userSpaceOnUse">
		<stop  offset="0" style="stop-color:#59595B"/>
		<stop  offset="0.0351" style="stop-color:#707072"/>
		<stop  offset="0.0934" style="stop-color:#8F8F91"/>
		<stop  offset="0.1595" style="stop-color:#ABABAB"/>
		<stop  offset="0.2341" style="stop-color:#C1C1C1"/>
		<stop  offset="0.3213" style="stop-color:#D2D2D2"/>
		<stop  offset="0.429" style="stop-color:#DDDDDD"/>
		<stop  offset="0.5802" style="stop-color:#E4E4E4"/>
		<stop  offset="1" style="stop-color:#E6E6E6"/>
	</radialGradient>
	<polygon fill-rule="evenodd" clip-rule="evenodd" fill="url(#SVGID_14_)" points="72.015,38.25 65.75,31.985 75.147,28.853 	"/>
</g>
</svg>
